<mxfile host="app.diagrams.net" agent="Mozilla/5.0 (Windows NT 10.0; Win64; x64) AppleWebKit/537.36 (KHTML, like Gecko) Chrome/136.0.0.0 Safari/537.36" version="27.0.9">
  <diagram name="Page-1" id="zaYP8ICOGeMnVHUdB2MF">
    <mxGraphModel dx="786" dy="729" grid="1" gridSize="10" guides="1" tooltips="1" connect="1" arrows="1" fold="1" page="1" pageScale="1" pageWidth="827" pageHeight="1169" math="0" shadow="0">
      <root>
        <mxCell id="0" />
        <mxCell id="1" parent="0" />
        <mxCell id="Ue8LXeeDn8uuF8aSwmYM-1" style="edgeStyle=orthogonalEdgeStyle;rounded=0;orthogonalLoop=1;jettySize=auto;html=1;exitX=0.5;exitY=1;exitDx=0;exitDy=0;entryX=0.5;entryY=0;entryDx=0;entryDy=0;" parent="1" source="Ue8LXeeDn8uuF8aSwmYM-2" target="Ue8LXeeDn8uuF8aSwmYM-4" edge="1">
          <mxGeometry relative="1" as="geometry" />
        </mxCell>
        <mxCell id="Ue8LXeeDn8uuF8aSwmYM-2" value="Department" style="swimlane;whiteSpace=wrap;html=1;fillColor=#ffe6cc;strokeColor=#d79b00;" parent="1" vertex="1">
          <mxGeometry x="290" y="40" width="180" height="180" as="geometry" />
        </mxCell>
        <mxCell id="Ue8LXeeDn8uuF8aSwmYM-3" value="Department-ID Name" style="text;html=1;align=center;verticalAlign=middle;resizable=0;points=[];autosize=1;strokeColor=#d6b656;fillColor=#fff2cc;" parent="Ue8LXeeDn8uuF8aSwmYM-2" vertex="1">
          <mxGeometry x="15" y="70" width="140" height="30" as="geometry" />
        </mxCell>
        <mxCell id="Ue8LXeeDn8uuF8aSwmYM-4" value="Has" style="rhombus;whiteSpace=wrap;html=1;fillColor=#ffe6cc;strokeColor=#d79b00;" parent="1" vertex="1">
          <mxGeometry x="340" y="250" width="80" height="80" as="geometry" />
        </mxCell>
        <mxCell id="Ue8LXeeDn8uuF8aSwmYM-5" style="edgeStyle=orthogonalEdgeStyle;rounded=0;orthogonalLoop=1;jettySize=auto;html=1;" parent="1" source="Ue8LXeeDn8uuF8aSwmYM-7" edge="1">
          <mxGeometry relative="1" as="geometry">
            <mxPoint x="500" y="250" as="targetPoint" />
          </mxGeometry>
        </mxCell>
        <mxCell id="Ue8LXeeDn8uuF8aSwmYM-6" style="edgeStyle=orthogonalEdgeStyle;rounded=0;orthogonalLoop=1;jettySize=auto;html=1;" parent="1" source="Ue8LXeeDn8uuF8aSwmYM-7" target="Ue8LXeeDn8uuF8aSwmYM-13" edge="1">
          <mxGeometry relative="1" as="geometry" />
        </mxCell>
        <mxCell id="Ue8LXeeDn8uuF8aSwmYM-7" value="Doc" style="swimlane;whiteSpace=wrap;html=1;fillColor=#fff2cc;strokeColor=#d6b656;" parent="1" vertex="1">
          <mxGeometry x="600" y="70" width="180" height="230" as="geometry" />
        </mxCell>
        <mxCell id="Ue8LXeeDn8uuF8aSwmYM-8" value="Doctor _ID&lt;div&gt;&lt;br&gt;&lt;div&gt;Name&lt;/div&gt;&lt;div&gt;&lt;br&gt;&lt;/div&gt;&lt;div&gt;specialty&lt;/div&gt;&lt;div&gt;&lt;br&gt;&lt;/div&gt;&lt;div&gt;Department-ID&lt;/div&gt;&lt;/div&gt;" style="text;html=1;align=center;verticalAlign=middle;resizable=0;points=[];autosize=1;strokeColor=#d6b656;fillColor=#fff2cc;" parent="Ue8LXeeDn8uuF8aSwmYM-7" vertex="1">
          <mxGeometry x="40" y="80" width="100" height="110" as="geometry" />
        </mxCell>
        <mxCell id="Ue8LXeeDn8uuF8aSwmYM-11" value="performs" style="text;html=1;align=center;verticalAlign=middle;resizable=0;points=[];autosize=1;strokeColor=#b85450;fillColor=#f8cecc;" parent="1" vertex="1">
          <mxGeometry x="445" y="228" width="70" height="30" as="geometry" />
        </mxCell>
        <mxCell id="Ue8LXeeDn8uuF8aSwmYM-12" style="edgeStyle=orthogonalEdgeStyle;rounded=0;orthogonalLoop=1;jettySize=auto;html=1;exitX=0.5;exitY=1;exitDx=0;exitDy=0;exitPerimeter=0;" parent="1" source="Ue8LXeeDn8uuF8aSwmYM-13" target="Ue8LXeeDn8uuF8aSwmYM-17" edge="1">
          <mxGeometry relative="1" as="geometry" />
        </mxCell>
        <mxCell id="Ue8LXeeDn8uuF8aSwmYM-13" value="works-in" style="strokeWidth=2;html=1;shape=mxgraph.flowchart.decision;whiteSpace=wrap;fillColor=#ffe6cc;strokeColor=#d79b00;" parent="1" vertex="1">
          <mxGeometry x="620" y="340" width="100" height="100" as="geometry" />
        </mxCell>
        <mxCell id="Ue8LXeeDn8uuF8aSwmYM-14" value="visit" style="swimlane;whiteSpace=wrap;html=1;fillColor=#fff2cc;strokeColor=#d6b656;" parent="1" vertex="1">
          <mxGeometry x="290" y="380" width="180" height="230" as="geometry" />
        </mxCell>
        <mxCell id="Ue8LXeeDn8uuF8aSwmYM-15" value="&lt;div&gt;&lt;span style=&quot;background-color: transparent; color: light-dark(rgb(0, 0, 0), rgb(255, 255, 255));&quot;&gt;&lt;font&gt;visit-id&lt;/font&gt;&lt;/span&gt;&lt;/div&gt;&lt;div&gt;&lt;span style=&quot;background-color: transparent; color: light-dark(rgb(0, 0, 0), rgb(255, 255, 255));&quot;&gt;&lt;font&gt;&lt;br&gt;&lt;/font&gt;&lt;/span&gt;&lt;/div&gt;&lt;span style=&quot;background-color: transparent; color: light-dark(rgb(0, 0, 0), rgb(255, 255, 255));&quot;&gt;&lt;font&gt;patient-id&lt;/font&gt;&lt;/span&gt;&lt;div&gt;&lt;font&gt;&lt;br&gt;&lt;span style=&quot;background-color: transparent; color: light-dark(rgb(0, 0, 0), rgb(255, 255, 255));&quot;&gt;doctor-id&lt;/span&gt;&lt;/font&gt;&lt;/div&gt;&lt;div&gt;&lt;font&gt;&lt;br&gt;&lt;span style=&quot;background-color: transparent; color: light-dark(rgb(0, 0, 0), rgb(255, 255, 255));&quot;&gt;visit-date&lt;/span&gt;&lt;/font&gt;&lt;/div&gt;&lt;div&gt;&lt;font&gt;&lt;br&gt;&lt;span style=&quot;background-color: transparent; color: light-dark(rgb(0, 0, 0), rgb(255, 255, 255));&quot;&gt;diagnosis&lt;/span&gt;&lt;/font&gt;&lt;/div&gt;&lt;div&gt;&lt;span style=&quot;background-color: transparent; color: light-dark(rgb(0, 0, 0), rgb(255, 255, 255)); font-size: 20px;&quot;&gt;&lt;br&gt;&lt;/span&gt;&lt;/div&gt;" style="text;html=1;align=right;verticalAlign=middle;resizable=0;points=[];autosize=1;strokeColor=#d6b656;fillColor=#fff2cc;" parent="Ue8LXeeDn8uuF8aSwmYM-14" vertex="1">
          <mxGeometry x="55" y="30" width="70" height="170" as="geometry" />
        </mxCell>
        <mxCell id="Ue8LXeeDn8uuF8aSwmYM-16" style="edgeStyle=orthogonalEdgeStyle;rounded=0;orthogonalLoop=1;jettySize=auto;html=1;" parent="1" source="Ue8LXeeDn8uuF8aSwmYM-17" edge="1">
          <mxGeometry relative="1" as="geometry">
            <mxPoint x="550" y="675" as="targetPoint" />
          </mxGeometry>
        </mxCell>
        <mxCell id="Ue8LXeeDn8uuF8aSwmYM-17" value="APPOINTMENT" style="swimlane;whiteSpace=wrap;html=1;fillColor=#fff2cc;strokeColor=#d6b656;" parent="1" vertex="1">
          <mxGeometry x="610" y="550" width="200" height="250" as="geometry" />
        </mxCell>
        <mxCell id="Ue8LXeeDn8uuF8aSwmYM-18" value="APPIONTMENT-ID&lt;div&gt;&lt;br&gt;&lt;div&gt;PATIENT-ID&lt;/div&gt;&lt;div&gt;&lt;br&gt;&lt;/div&gt;&lt;div&gt;DOCTOR-ID&lt;/div&gt;&lt;div&gt;&lt;br&gt;&lt;/div&gt;&lt;div&gt;Appointment-date&lt;/div&gt;&lt;/div&gt;" style="text;html=1;align=center;verticalAlign=middle;resizable=0;points=[];autosize=1;strokeColor=#d6b656;fillColor=#fff2cc;" parent="Ue8LXeeDn8uuF8aSwmYM-17" vertex="1">
          <mxGeometry x="40" y="50" width="130" height="110" as="geometry" />
        </mxCell>
        <mxCell id="Ue8LXeeDn8uuF8aSwmYM-19" style="edgeStyle=orthogonalEdgeStyle;rounded=0;orthogonalLoop=1;jettySize=auto;html=1;exitX=0.5;exitY=1;exitDx=0;exitDy=0;entryX=0.5;entryY=0;entryDx=0;entryDy=0;" parent="1" source="Ue8LXeeDn8uuF8aSwmYM-20" target="Ue8LXeeDn8uuF8aSwmYM-22" edge="1">
          <mxGeometry relative="1" as="geometry" />
        </mxCell>
        <mxCell id="Ue8LXeeDn8uuF8aSwmYM-20" value="prescribes" style="rhombus;whiteSpace=wrap;html=1;fillColor=#f8cecc;strokeColor=#b85450;" parent="1" vertex="1">
          <mxGeometry x="380" y="710" width="80" height="80" as="geometry" />
        </mxCell>
        <mxCell id="Ue8LXeeDn8uuF8aSwmYM-21" style="edgeStyle=orthogonalEdgeStyle;rounded=0;orthogonalLoop=1;jettySize=auto;html=1;exitX=0.5;exitY=1;exitDx=0;exitDy=0;entryX=0.475;entryY=0.088;entryDx=0;entryDy=0;entryPerimeter=0;" parent="1" source="Ue8LXeeDn8uuF8aSwmYM-14" target="Ue8LXeeDn8uuF8aSwmYM-20" edge="1">
          <mxGeometry relative="1" as="geometry" />
        </mxCell>
        <mxCell id="Ue8LXeeDn8uuF8aSwmYM-22" value="APPOINTMENT" style="whiteSpace=wrap;html=1;fillColor=#e1d5e7;strokeColor=#9673a6;" parent="1" vertex="1">
          <mxGeometry x="360" y="830" width="120" height="60" as="geometry" />
        </mxCell>
        <mxCell id="Ue8LXeeDn8uuF8aSwmYM-23" value="MAKES" style="text;html=1;align=center;verticalAlign=middle;resizable=0;points=[];autosize=1;strokeColor=#d6b656;fillColor=#fff2cc;" parent="1" vertex="1">
          <mxGeometry x="495" y="658" width="70" height="30" as="geometry" />
        </mxCell>
        <mxCell id="Ue8LXeeDn8uuF8aSwmYM-24" value="MEDICATION" style="swimlane;whiteSpace=wrap;html=1;fillColor=#fff2cc;strokeColor=#d6b656;" parent="1" vertex="1">
          <mxGeometry x="50" y="630" width="200" height="200" as="geometry" />
        </mxCell>
        <mxCell id="Ue8LXeeDn8uuF8aSwmYM-25" value="MEDICATION-ID&lt;div&gt;&lt;br&gt;&lt;div&gt;NAME&lt;/div&gt;&lt;div&gt;&lt;br&gt;&lt;/div&gt;&lt;div&gt;DOSAGE&lt;/div&gt;&lt;/div&gt;" style="text;html=1;align=center;verticalAlign=middle;resizable=0;points=[];autosize=1;strokeColor=#d6b656;fillColor=#fff2cc;" parent="Ue8LXeeDn8uuF8aSwmYM-24" vertex="1">
          <mxGeometry x="30" y="75" width="110" height="90" as="geometry" />
        </mxCell>
        <mxCell id="Ue8LXeeDn8uuF8aSwmYM-26" style="edgeStyle=orthogonalEdgeStyle;rounded=0;orthogonalLoop=1;jettySize=auto;html=1;exitX=0.5;exitY=1;exitDx=0;exitDy=0;entryX=0.365;entryY=-0.004;entryDx=0;entryDy=0;entryPerimeter=0;" parent="1" source="Ue8LXeeDn8uuF8aSwmYM-4" target="Ue8LXeeDn8uuF8aSwmYM-14" edge="1">
          <mxGeometry relative="1" as="geometry" />
        </mxCell>
        <mxCell id="Ue8LXeeDn8uuF8aSwmYM-27" style="edgeStyle=orthogonalEdgeStyle;rounded=0;orthogonalLoop=1;jettySize=auto;html=1;entryX=0;entryY=0.5;entryDx=0;entryDy=0;entryPerimeter=0;" parent="1" source="Ue8LXeeDn8uuF8aSwmYM-14" target="Ue8LXeeDn8uuF8aSwmYM-13" edge="1">
          <mxGeometry relative="1" as="geometry" />
        </mxCell>
        <mxCell id="Ue8LXeeDn8uuF8aSwmYM-28" value="Has" style="text;html=1;align=center;verticalAlign=middle;resizable=0;points=[];autosize=1;strokeColor=none;fillColor=none;" parent="1" vertex="1">
          <mxGeometry x="230" y="428" width="40" height="30" as="geometry" />
        </mxCell>
        <mxCell id="Ue8LXeeDn8uuF8aSwmYM-29" style="edgeStyle=orthogonalEdgeStyle;rounded=0;orthogonalLoop=1;jettySize=auto;html=1;exitX=1;exitY=0.75;exitDx=0;exitDy=0;entryX=0.05;entryY=0.433;entryDx=0;entryDy=0;entryPerimeter=0;" parent="1" target="Ue8LXeeDn8uuF8aSwmYM-28" edge="1">
          <mxGeometry relative="1" as="geometry">
            <mxPoint x="230" y="423.75" as="sourcePoint" />
          </mxGeometry>
        </mxCell>
        <mxCell id="Ue8LXeeDn8uuF8aSwmYM-30" style="edgeStyle=orthogonalEdgeStyle;rounded=0;orthogonalLoop=1;jettySize=auto;html=1;entryX=1.025;entryY=0.367;entryDx=0;entryDy=0;entryPerimeter=0;" parent="1" source="Ue8LXeeDn8uuF8aSwmYM-28" target="Ue8LXeeDn8uuF8aSwmYM-28" edge="1">
          <mxGeometry relative="1" as="geometry" />
        </mxCell>
        <mxCell id="Ue8LXeeDn8uuF8aSwmYM-31" style="edgeStyle=orthogonalEdgeStyle;rounded=0;orthogonalLoop=1;jettySize=auto;html=1;exitX=1;exitY=0;exitDx=0;exitDy=0;entryX=0.024;entryY=1.011;entryDx=0;entryDy=0;entryPerimeter=0;" parent="1" source="Ue8LXeeDn8uuF8aSwmYM-20" target="Ue8LXeeDn8uuF8aSwmYM-23" edge="1">
          <mxGeometry relative="1" as="geometry" />
        </mxCell>
        <mxCell id="Ue8LXeeDn8uuF8aSwmYM-32" value="AHMAD SHAH FARAHMAND" style="whiteSpace=wrap;html=1;fillColor=#bac8d3;strokeColor=#23445d;" parent="1" vertex="1">
          <mxGeometry x="40" y="970" width="210" height="120" as="geometry" />
        </mxCell>
        <mxCell id="Ue8LXeeDn8uuF8aSwmYM-33" value="ALI SHAHPANAHI" style="whiteSpace=wrap;html=1;fillColor=#fad7ac;strokeColor=#b46504;" parent="1" vertex="1">
          <mxGeometry x="315" y="1010" width="210" height="120" as="geometry" />
        </mxCell>
        <mxCell id="Ue8LXeeDn8uuF8aSwmYM-34" value="ALI SAJJAD SULTANI" style="whiteSpace=wrap;html=1;fillColor=#b1ddf0;strokeColor=#10739e;" parent="1" vertex="1">
          <mxGeometry x="610" y="970" width="210" height="120" as="geometry" />
        </mxCell>
        <mxCell id="Ue8LXeeDn8uuF8aSwmYM-35" style="edgeStyle=orthogonalEdgeStyle;rounded=0;orthogonalLoop=1;jettySize=auto;html=1;exitX=0.5;exitY=1;exitDx=0;exitDy=0;entryX=0.5;entryY=0;entryDx=0;entryDy=0;" parent="1" source="Ue8LXeeDn8uuF8aSwmYM-38" target="Ue8LXeeDn8uuF8aSwmYM-33" edge="1">
          <mxGeometry relative="1" as="geometry" />
        </mxCell>
        <mxCell id="Ue8LXeeDn8uuF8aSwmYM-36" style="edgeStyle=orthogonalEdgeStyle;rounded=0;orthogonalLoop=1;jettySize=auto;html=1;entryX=0.5;entryY=0;entryDx=0;entryDy=0;" parent="1" source="Ue8LXeeDn8uuF8aSwmYM-38" target="Ue8LXeeDn8uuF8aSwmYM-32" edge="1">
          <mxGeometry relative="1" as="geometry" />
        </mxCell>
        <mxCell id="Ue8LXeeDn8uuF8aSwmYM-37" style="edgeStyle=orthogonalEdgeStyle;rounded=0;orthogonalLoop=1;jettySize=auto;html=1;entryX=0.5;entryY=0;entryDx=0;entryDy=0;" parent="1" source="Ue8LXeeDn8uuF8aSwmYM-38" target="Ue8LXeeDn8uuF8aSwmYM-34" edge="1">
          <mxGeometry relative="1" as="geometry" />
        </mxCell>
        <mxCell id="Ue8LXeeDn8uuF8aSwmYM-38" value="PREOPARED BY" style="whiteSpace=wrap;html=1;fillColor=#dae8fc;strokeColor=#6c8ebf;" parent="1" vertex="1">
          <mxGeometry x="360" y="920" width="120" height="60" as="geometry" />
        </mxCell>
        <mxCell id="Ue8LXeeDn8uuF8aSwmYM-39" value="" style="ellipse;whiteSpace=wrap;html=1;" parent="1" vertex="1">
          <mxGeometry x="350" y="340" width="120" height="80" as="geometry" />
        </mxCell>
        <mxCell id="Ue8LXeeDn8uuF8aSwmYM-40" value="" style="ellipse;whiteSpace=wrap;html=1;" parent="1" vertex="1">
          <mxGeometry x="350" y="340" width="120" height="80" as="geometry" />
        </mxCell>
        <mxCell id="G7p0IPWNJglMvQryKV6g-53" value="patient" style="shape=table;startSize=30;container=1;collapsible=1;childLayout=tableLayout;fixedRows=1;rowLines=0;fontStyle=1;align=center;resizeLast=1;html=1;fillColor=#fff2cc;strokeColor=#d6b656;" vertex="1" parent="1">
          <mxGeometry x="55" y="380" width="180" height="180" as="geometry" />
        </mxCell>
        <mxCell id="G7p0IPWNJglMvQryKV6g-54" value="" style="shape=tableRow;horizontal=0;startSize=0;swimlaneHead=0;swimlaneBody=0;fillColor=none;collapsible=0;dropTarget=0;points=[[0,0.5],[1,0.5]];portConstraint=eastwest;top=0;left=0;right=0;bottom=1;" vertex="1" parent="G7p0IPWNJglMvQryKV6g-53">
          <mxGeometry y="30" width="180" height="30" as="geometry" />
        </mxCell>
        <mxCell id="G7p0IPWNJglMvQryKV6g-55" value="PK" style="shape=partialRectangle;connectable=0;fillColor=none;top=0;left=0;bottom=0;right=0;fontStyle=1;overflow=hidden;whiteSpace=wrap;html=1;" vertex="1" parent="G7p0IPWNJglMvQryKV6g-54">
          <mxGeometry width="30" height="30" as="geometry">
            <mxRectangle width="30" height="30" as="alternateBounds" />
          </mxGeometry>
        </mxCell>
        <mxCell id="G7p0IPWNJglMvQryKV6g-56" value="patient-id" style="shape=partialRectangle;connectable=0;fillColor=none;top=0;left=0;bottom=0;right=0;align=left;spacingLeft=6;fontStyle=5;overflow=hidden;whiteSpace=wrap;html=1;" vertex="1" parent="G7p0IPWNJglMvQryKV6g-54">
          <mxGeometry x="30" width="150" height="30" as="geometry">
            <mxRectangle width="150" height="30" as="alternateBounds" />
          </mxGeometry>
        </mxCell>
        <mxCell id="G7p0IPWNJglMvQryKV6g-57" value="" style="shape=tableRow;horizontal=0;startSize=0;swimlaneHead=0;swimlaneBody=0;fillColor=none;collapsible=0;dropTarget=0;points=[[0,0.5],[1,0.5]];portConstraint=eastwest;top=0;left=0;right=0;bottom=0;" vertex="1" parent="G7p0IPWNJglMvQryKV6g-53">
          <mxGeometry y="60" width="180" height="30" as="geometry" />
        </mxCell>
        <mxCell id="G7p0IPWNJglMvQryKV6g-58" value="" style="shape=partialRectangle;connectable=0;fillColor=none;top=0;left=0;bottom=0;right=0;editable=1;overflow=hidden;whiteSpace=wrap;html=1;" vertex="1" parent="G7p0IPWNJglMvQryKV6g-57">
          <mxGeometry width="30" height="30" as="geometry">
            <mxRectangle width="30" height="30" as="alternateBounds" />
          </mxGeometry>
        </mxCell>
        <mxCell id="G7p0IPWNJglMvQryKV6g-59" value="name&lt;div&gt;&lt;br&gt;&lt;/div&gt;" style="shape=partialRectangle;connectable=0;fillColor=none;top=0;left=0;bottom=0;right=0;align=left;spacingLeft=6;overflow=hidden;whiteSpace=wrap;html=1;" vertex="1" parent="G7p0IPWNJglMvQryKV6g-57">
          <mxGeometry x="30" width="150" height="30" as="geometry">
            <mxRectangle width="150" height="30" as="alternateBounds" />
          </mxGeometry>
        </mxCell>
        <mxCell id="G7p0IPWNJglMvQryKV6g-60" value="" style="shape=tableRow;horizontal=0;startSize=0;swimlaneHead=0;swimlaneBody=0;fillColor=none;collapsible=0;dropTarget=0;points=[[0,0.5],[1,0.5]];portConstraint=eastwest;top=0;left=0;right=0;bottom=0;" vertex="1" parent="G7p0IPWNJglMvQryKV6g-53">
          <mxGeometry y="90" width="180" height="30" as="geometry" />
        </mxCell>
        <mxCell id="G7p0IPWNJglMvQryKV6g-61" value="" style="shape=partialRectangle;connectable=0;fillColor=none;top=0;left=0;bottom=0;right=0;editable=1;overflow=hidden;whiteSpace=wrap;html=1;" vertex="1" parent="G7p0IPWNJglMvQryKV6g-60">
          <mxGeometry width="30" height="30" as="geometry">
            <mxRectangle width="30" height="30" as="alternateBounds" />
          </mxGeometry>
        </mxCell>
        <mxCell id="G7p0IPWNJglMvQryKV6g-62" value="dob" style="shape=partialRectangle;connectable=0;fillColor=none;top=0;left=0;bottom=0;right=0;align=left;spacingLeft=6;overflow=hidden;whiteSpace=wrap;html=1;" vertex="1" parent="G7p0IPWNJglMvQryKV6g-60">
          <mxGeometry x="30" width="150" height="30" as="geometry">
            <mxRectangle width="150" height="30" as="alternateBounds" />
          </mxGeometry>
        </mxCell>
        <mxCell id="G7p0IPWNJglMvQryKV6g-63" value="" style="shape=tableRow;horizontal=0;startSize=0;swimlaneHead=0;swimlaneBody=0;fillColor=none;collapsible=0;dropTarget=0;points=[[0,0.5],[1,0.5]];portConstraint=eastwest;top=0;left=0;right=0;bottom=0;" vertex="1" parent="G7p0IPWNJglMvQryKV6g-53">
          <mxGeometry y="120" width="180" height="60" as="geometry" />
        </mxCell>
        <mxCell id="G7p0IPWNJglMvQryKV6g-64" value="" style="shape=partialRectangle;connectable=0;fillColor=none;top=0;left=0;bottom=0;right=0;editable=1;overflow=hidden;whiteSpace=wrap;html=1;" vertex="1" parent="G7p0IPWNJglMvQryKV6g-63">
          <mxGeometry width="30" height="60" as="geometry">
            <mxRectangle width="30" height="60" as="alternateBounds" />
          </mxGeometry>
        </mxCell>
        <mxCell id="G7p0IPWNJglMvQryKV6g-65" value="gender" style="shape=partialRectangle;connectable=0;fillColor=none;top=0;left=0;bottom=0;right=0;align=left;spacingLeft=6;overflow=hidden;whiteSpace=wrap;html=1;" vertex="1" parent="G7p0IPWNJglMvQryKV6g-63">
          <mxGeometry x="30" width="150" height="60" as="geometry">
            <mxRectangle width="150" height="60" as="alternateBounds" />
          </mxGeometry>
        </mxCell>
      </root>
    </mxGraphModel>
  </diagram>
</mxfile>
